<svg width="1vw" height="1vw" viewBox="0 0 18 18" fill="none" xmlns="http://www.w3.org/2000/svg">
<path d="M16.875 1.1375C16.7594 1.02163 16.622 0.929691 16.4708 0.866964C16.3196 0.804237 16.1575 0.77195 15.9938 0.77195C15.8301 0.77195 15.668 0.804237 15.5168 0.866964C15.3655 0.929691 15.2282 1.02163 15.1125 1.1375L9.00004 7.2375L2.88754 1.125C2.77181 1.00928 2.63442 0.917477 2.48321 0.854846C2.33201 0.792215 2.16995 0.759979 2.00629 0.759979C1.84262 0.759979 1.68056 0.792215 1.52936 0.854846C1.37815 0.917477 1.24076 1.00928 1.12504 1.125C1.00931 1.24073 0.917508 1.37812 0.854877 1.52933C0.792245 1.68053 0.76001 1.84259 0.76001 2.00626C0.76001 2.16992 0.792245 2.33198 0.854877 2.48318C0.917508 2.63439 1.00931 2.77178 1.12504 2.8875L7.23754 9L1.12504 15.1125C1.00931 15.2282 0.917508 15.3656 0.854877 15.5168C0.792245 15.668 0.76001 15.8301 0.76001 15.9938C0.76001 16.1574 0.792245 16.3195 0.854877 16.4707C0.917508 16.6219 1.00931 16.7593 1.12504 16.875C1.24076 16.9907 1.37815 17.0825 1.52936 17.1452C1.68056 17.2078 1.84262 17.24 2.00629 17.24C2.16995 17.24 2.33201 17.2078 2.48321 17.1452C2.63442 17.0825 2.77181 16.9907 2.88754 16.875L9.00004 10.7625L15.1125 16.875C15.2283 16.9907 15.3657 17.0825 15.5169 17.1452C15.6681 17.2078 15.8301 17.24 15.9938 17.24C16.1574 17.24 16.3195 17.2078 16.4707 17.1452C16.6219 17.0825 16.7593 16.9907 16.875 16.875C16.9908 16.7593 17.0826 16.6219 17.1452 16.4707C17.2078 16.3195 17.2401 16.1574 17.2401 15.9938C17.2401 15.8301 17.2078 15.668 17.1452 15.5168C17.0826 15.3656 16.9908 15.2282 16.875 15.1125L10.7625 9L16.875 2.8875C17.35 2.4125 17.35 1.6125 16.875 1.1375Z" fill="#646464"/>
</svg>
