<svg viewBox="0 0 50 50" fill="none" xmlns="http://www.w3.org/2000/svg">
<g clip-path="url(#clip0_17_7)">
<path d="M18.67 50H0V0H50V50H24.57C28.03 48.56 31.64 47.4 34.91 45.62C43.3 41.05 48.79 30.63 47.53 22.31C46.91 22.66 46.29 23.01 46.12 23.11C46.32 19.87 47.75 14.52 46.51 13.78C42.52 11.39 43.12 6.34 39.7 4.06C38.88 3.51 38.08 2.93 36.7 1.97C41.83 14.07 39.94 22.81 31.89 25.79C31.28 23.75 30.44 21.76 30.13 19.68C29.92 18.26 31.15 15.94 30.53 15.38C26.85 12.01 23.77 6.9 17.03 9.43C21.36 12.25 23.49 16.76 21.46 21C18.58 27.05 19.46 31.47 23.51 36.29C25.82 39.05 24.33 42.12 21.27 43.03C18.63 43.82 15.26 43.99 12.8 42.97C9.55 41.62 6.87 38.83 4.13 36.8C4.3 41.08 5.1 43.11 8.93 45.45C11.97 47.31 15.39 48.51 18.65 50.01L18.67 50ZM2.34 11.61C-1.18 21 6.82 30.42 19.24 30.94C17.71 28.87 16.92 26.75 15.46 26.02C11.13 23.88 8.85 20.35 8.81 15.81C8.76 11.34 9.75 6.85 10.44 1.02C7.66 5.56 5.36 9.31 3.07 13.05C3.11 13.13 2.85 12.62 2.34 11.61Z" fill="white"/>
<path d="M18.67 50C15.42 48.5 11.99 47.3 8.94999 45.44C5.11999 43.1 4.30999 41.07 4.14999 36.79C6.88999 38.82 9.56999 41.61 12.82 42.96C15.28 43.98 18.65 43.81 21.29 43.02C24.35 42.11 25.84 39.04 23.53 36.28C19.48 31.45 18.59 27.03 21.48 20.99C23.5 16.75 21.37 12.24 17.05 9.42002C23.79 6.89002 26.87 12 30.55 15.37C31.16 15.93 29.94 18.25 30.15 19.67C30.46 21.75 31.3 23.74 31.91 25.78C39.96 22.81 41.85 14.06 36.72 1.96002C38.1 2.92002 38.9 3.51002 39.72 4.05002C43.13 6.33002 42.54 11.38 46.53 13.77C47.77 14.51 46.35 19.86 46.14 23.1C46.32 23 46.93 22.65 47.55 22.3C48.81 30.62 43.32 41.04 34.93 45.61C31.65 47.4 28.04 48.55 24.59 49.99H18.69L18.67 50Z" fill="#CE122D"/>
<path d="M2.34001 11.61C2.85001 12.62 3.10001 13.12 3.07001 13.05C5.36001 9.31002 7.66 5.56002 10.44 1.02002C9.75 6.86002 8.76001 11.34 8.81001 15.81C8.86001 20.34 11.13 23.87 15.46 26.02C16.92 26.74 17.71 28.87 19.24 30.94C6.82001 30.41 -1.17999 21 2.34001 11.61Z" fill="#CE122D"/>
</g>
<defs>
<clipPath id="clip0_17_7">
<rect width="50" height="50" fill="white"/>
</clipPath>
</defs>
</svg>
