<svg width="3vw" height="3vw" viewBox="0 0 50 50" fill="none" xmlns="http://www.w3.org/2000/svg">
<g clip-path="url(#clip0_384_2)">
<path d="M33.968 0C35.842 0.354409 37.4634 1.22511 38.9585 2.33391C42.1884 4.72834 44.4186 7.76714 45.2127 11.6916C45.5187 13.2043 45.4952 14.7194 44.9917 16.2046C44.9609 16.2958 44.9391 16.3893 44.9172 16.4828C44.9148 16.493 44.9334 16.5087 44.9658 16.5574C46.1573 14.4412 46.5985 12.2189 46.2488 9.83702C48.4175 12.3116 49.1104 15.1775 48.5785 18.3326C48.0507 21.4642 46.3273 23.9631 44.0292 26.1367C46.5159 24.5478 48.7251 22.7498 49.35 19.6434C49.4949 20.6885 49.745 21.7321 49.7661 22.7796C49.8438 26.6365 48.9307 30.2772 47.1328 33.7278C45.9315 36.0334 44.6493 38.2754 42.9064 40.2463C40.4229 43.0548 37.4642 45.2245 33.9898 46.7765C32.1871 47.582 30.4297 48.4818 28.5007 48.9737C20.0228 51.1363 12.4816 49.4601 5.98945 43.689C4.31704 42.2022 3.52293 40.2211 3.12385 38.0907C2.82433 36.4932 2.88181 34.9018 3.33189 33.254C3.57797 33.9282 3.79006 34.5372 4.02157 35.1392C4.88207 37.378 6.41768 39.1398 8.30784 40.5983C10.1511 42.0199 12.1902 43.1279 14.5474 43.5358C16.9589 43.953 19.3558 44.0269 21.6613 43.0124C23.324 42.2808 24.3148 41.0376 24.6046 39.2931C24.7713 38.2903 24.522 37.3442 23.9197 36.5277C23.0471 35.3435 22.0935 34.2158 21.2168 33.0347C19.763 31.078 18.9082 28.9193 19.0474 26.4644C19.0587 26.2695 19.181 26.0432 19.3242 25.8986C20.1394 25.0758 20.6551 24.077 21.0978 23.0452C22.1113 20.6846 22.5112 18.2344 21.811 15.7355C20.9165 12.5442 18.7754 10.406 15.603 9.228C15.4508 9.17142 15.2954 9.12034 15.1327 9.06298C16.1543 7.9691 18.3156 8.08776 20.0649 9.3443C20.9222 8.65906 21.9486 8.53411 23.0172 8.69599C24.3196 8.89324 25.3906 9.54941 26.2899 10.4508C27.1715 11.3348 27.985 12.2817 28.852 13.1799C29.9027 14.2691 31.0659 15.2035 32.6267 15.5241C32.8371 15.5673 33.0524 15.5854 33.267 15.6144C32.9877 16.3995 31.9224 16.8576 30.4159 16.7759C31.5201 17.4093 32.5125 17.979 33.56 18.5809C32.4421 19.2678 31.2975 19.2583 30.0428 19.0784C31.4934 21.1907 32.4963 23.3926 32.3199 25.9898C33.6863 25.7799 34.843 25.2401 35.8849 24.4605C38.1045 22.7985 39.3349 20.5369 39.9259 17.9358C40.8592 13.8267 40.7637 9.76472 39.088 5.823C38.4461 4.31263 37.5573 2.94922 36.3147 1.82234C35.472 1.05773 34.5184 0.486429 33.3989 0.187028C33.2791 0.154808 33.1763 0.0652239 33.0654 0.00235749C33.3657 0.00235749 33.6669 0.00235749 33.9672 0.00235749L33.968 0Z" fill="#CE122E"/>
<path d="M15.8313 0C15.7552 0.0573656 15.688 0.147736 15.6022 0.168168C13.6999 0.632593 12.3415 1.81684 11.2277 3.30599C9.67102 5.38686 8.85505 7.75457 8.53368 10.2787C8.1597 13.2161 8.30541 16.1339 9.2169 18.9778C10.0596 21.604 11.5563 23.7729 14.0957 25.1324C14.6737 25.442 15.3075 25.6833 15.9454 25.8467C16.5841 26.0102 17.26 26.0377 17.987 26.1343C17.8898 28.2089 18.3739 30.1822 19.3688 31.9558C12.8005 31.1063 7.1454 28.4761 2.80409 23.4633C1.31705 21.7447 0.232325 19.8391 0.0858063 17.5327C0.0809494 17.4588 0.0299513 17.3873 0 17.315C0 16.7641 0 16.2125 0 15.6616C0.0364272 15.5084 0.0882348 15.3575 0.106853 15.2019C0.345654 13.2955 1.0313 11.5698 2.28925 10.0712C2.36534 9.98004 2.39691 9.85352 2.44953 9.7435C2.49243 9.78594 2.53533 9.82837 2.57905 9.8716C2.40824 12.8295 2.91499 15.4282 3.9139 16.5056C3.28493 14.7461 3.25902 13.0157 3.67753 11.2845C4.63921 7.30822 7.03207 4.29613 10.4198 1.97322C11.7903 1.03337 13.2692 0.319047 14.9295 0C15.2306 0 15.5309 0 15.8313 0Z" fill="#CF1733"/>
</g>
<defs>
<clipPath id="clip0_384_2">
<rect width="50" height="50" fill="white"/>
</clipPath>
</defs>
</svg>
